<?xml version="1.0" encoding="utf-8"?>
<!-- Generator: Adobe Illustrator 28.0.0, SVG Export Plug-In . SVG Version: 6.00 Build 0)  -->
<svg version="1.1" id="Layer_1" xmlns="http://www.w3.org/2000/svg" xmlns:xlink="http://www.w3.org/1999/xlink" x="0px" y="0px"
	 viewBox="0 0 288 83" style="enable-background:new 0 0 288 83;" xml:space="preserve">
<style type="text/css">
	.st0{fill:#036534;}
	.st1{fill:#35519E;}
	.st2{fill:#334EA1;}
	.st3{fill:#4D4E4E;}
	.st4{fill:#35509E;}
</style>
<g>
	<g>
		<g>
			<g>
				<polygon class="st0" points="11.45,22.87 14.36,22.87 14.36,18.81 19.3,18.81 19.3,15.9 11.45,15.9 				"/>
				<polygon class="st0" points="73.03,55.8 68.56,55.8 68.56,58.71 75.94,58.71 75.94,51.43 73.03,51.43 				"/>
				<path class="st0" d="M60.5,35.62c-0.25-1.37-0.74-2.71-1.47-3.98c-1.45-2.5-3.63-4.32-6.11-5.33l-0.03,0.03l-4.39,2.54
					L60.5,35.62z"/>
				<path class="st0" d="M43.87,44.63l-4.36-2.45l-2.08,2.04c0.67,1.14,1.5,2.14,2.44,2.98c1.08,0.97,2.3,1.73,3.62,2.26l0.03-0.03
					l4.39-2.54L43.87,44.63z"/>
				<path class="st0" d="M60.55,36.17l-4.39-2.54l0.15,13.77c1.06-0.9,1.98-1.99,2.72-3.27c1.45-2.5,1.93-5.3,1.56-7.96L60.55,36.17
					z"/>
				<path class="st0" d="M55.87,42.64l-11.84,7.02c1.06,0.38,2.19,0.61,3.36,0.68h0.66v0.03c0.06,0,0.11,0.01,0.16,0.01
					c2.89,0,5.55-0.98,7.67-2.63l-0.01-0.04V42.64z"/>
				<polygon class="st0" points="40.25,41.45 39.81,41.88 40.26,42.14 				"/>
				<path class="st0" d="M47.23,29.17l5.16-3.06c-1.31-0.47-2.72-0.72-4.19-0.72c-0.78,0-1.55,0.08-2.29,0.22
					c-0.26,0.05-0.52,0.1-0.77,0.17c0.8,1.05,1.29,2.32,1.45,3.77L47.23,29.17z"/>
			</g>
			<g>
				<g>
					<polygon class="st0" points="11.45,22.87 14.36,22.87 14.36,18.81 19.3,18.81 19.3,15.9 11.45,15.9 					"/>
					<polygon class="st0" points="73.03,55.8 68.56,55.8 68.56,58.71 75.94,58.71 75.94,51.43 73.03,51.43 					"/>
					<path class="st0" d="M60.5,35.62c-0.25-1.37-0.74-2.71-1.47-3.98c-1.45-2.5-3.63-4.32-6.11-5.33l-0.03,0.03l-4.39,2.54
						L60.5,35.62z"/>
					<path class="st0" d="M43.87,44.63l-4.36-2.45l-2.08,2.04c0.67,1.14,1.5,2.14,2.44,2.98c1.08,0.97,2.3,1.73,3.62,2.26l0.03-0.03
						l4.39-2.54L43.87,44.63z"/>
					<path class="st0" d="M60.55,36.17l-4.39-2.54l0.15,13.77c1.06-0.9,1.98-1.99,2.72-3.27c1.45-2.5,1.93-5.3,1.56-7.96
						L60.55,36.17z"/>
					<path class="st0" d="M55.87,42.64l-11.84,7.02c1.06,0.38,2.19,0.61,3.36,0.68h0.66v0.03c0.06,0,0.11,0.01,0.16,0.01
						c2.89,0,5.55-0.98,7.67-2.63l-0.01-0.04V42.64z"/>
					<polygon class="st0" points="40.25,41.45 39.81,41.88 40.26,42.14 					"/>
					<path class="st0" d="M47.23,29.17l5.16-3.06c-1.31-0.47-2.72-0.72-4.19-0.72c-0.78,0-1.55,0.08-2.29,0.22
						c-0.26,0.05-0.52,0.1-0.77,0.17c0.8,1.05,1.29,2.32,1.45,3.77L47.23,29.17z"/>
				</g>
				<g>
					<polygon class="st1" points="68.47,18.81 73.03,18.81 73.03,22.89 75.94,22.89 75.94,15.9 68.47,15.9 					"/>
					<polygon class="st1" points="19.23,55.8 14.36,55.8 14.36,51.33 11.45,51.33 11.45,58.71 19.23,58.71 					"/>
					<path class="st1" d="M63.5,37.89c0-8.44-6.84-15.29-15.29-15.29c-1.61,0-3.17,0.25-4.63,0.72c-0.32,0.1-0.63,0.21-0.94,0.34
						c-0.08-0.04-0.16-0.09-0.24-0.13c-1.6-0.81-3.59-1.25-5.9-1.25c-4.68,0-8.49,1.57-10.85,4.37l2.23,1.92
						c2.01-2.32,4.77-3.41,8.35-3.41c1.12,0,2.12,0.13,2.99,0.37c0.57,0.16,1.08,0.37,1.53,0.62c0.47,0.26,0.88,0.57,1.23,0.92
						c0.94,0.96,1.43,2.26,1.43,3.82c0,0.19-0.01,0.37-0.02,0.56c-0.03,0.41-0.09,0.83-0.2,1.27c-0.28,1.09-0.87,2.28-2.05,3.73
						c-0.28,0.34-0.59,0.7-0.94,1.07c-0.28,0.3-0.58,0.61-0.91,0.94l-2.01,1.97l-0.32,0.31l-0.72,0.71l-1.14,1.11l-1.07,1.05
						l-7.46,7.31v2.23h14.89h5.85c0.3,0.02,0.6,0.03,0.9,0.03c0.71,0,1.42-0.05,2.11-0.15C57.76,52,63.5,45.61,63.5,37.89z
						 M46.46,32.56c0.55-0.18,1.14-0.28,1.75-0.28c0.06,0,0.12,0.01,0.18,0.01c1.47,0.05,2.81,0.66,3.78,1.63
						c1.01,1.01,1.64,2.42,1.64,3.96c0,1.55-0.63,2.95-1.64,3.96c-1.01,1.01-2.42,1.64-3.96,1.64c-1.13,0-2.18-0.34-3.06-0.91
						c-0.32-0.21-0.63-0.45-0.9-0.73c-0.77-0.77-1.31-1.76-1.53-2.86C45.06,36.46,46.09,34.49,46.46,32.56z M36.97,50.35H31.2
						l2.24-2.2l1.95-1.92c1.05,1.61,2.39,3.01,3.96,4.12H36.97z M48.21,51.8c-0.06,0-0.11,0-0.16,0c-2.17-0.03-4.21-0.54-6.03-1.45
						c-1.24-0.62-2.37-1.41-3.37-2.36c-0.86-0.81-1.62-1.74-2.25-2.75l1.04-1.03l2.08-2.04l0.3-0.29l0.44-0.43l1.17-1.15
						c0.56,1.57,1.64,2.88,3.04,3.73c1.09,0.67,2.38,1.06,3.75,1.06c3.98,0,7.21-3.23,7.21-7.21c0-3.98-3.23-7.21-7.21-7.21
						c-0.14,0-0.27,0.01-0.41,0.02c-0.4,0.02-0.79,0.07-1.16,0.16c0-0.11,0.01-0.21,0.01-0.32c0-0.34-0.02-0.67-0.05-0.99
						c-0.15-1.45-0.65-2.72-1.45-3.77c-0.32-0.42-0.69-0.81-1.1-1.17c0.26-0.08,0.52-0.15,0.79-0.22c1.08-0.27,2.22-0.42,3.38-0.42
						c7.69,0,13.92,6.23,13.92,13.92C62.12,45.57,55.89,51.8,48.21,51.8z"/>
					<path class="st1" d="M48.04,50.37v-0.03h-0.66C47.6,50.36,47.82,50.37,48.04,50.37z"/>
				</g>
			</g>
			<g>
				<path class="st2" d="M20.8,17.52c0-1.09,0.84-1.87,1.98-1.87c0.66,0,1.2,0.24,1.54,0.68l-0.65,0.58
					c-0.23-0.27-0.5-0.42-0.85-0.42c-0.59,0-1,0.41-1,1.03s0.41,1.03,1,1.03c0.34,0,0.62-0.15,0.85-0.42l0.65,0.59
					c-0.35,0.44-0.88,0.68-1.54,0.68C21.64,19.39,20.8,18.61,20.8,17.52z"/>
				<path class="st2" d="M28.43,18.53v0.79h-2.88v-3.59h2.82v0.78h-1.81v0.61h1.6v0.76h-1.6v0.66H28.43z"/>
				<path class="st2" d="M29.76,15.73h1.02v2.79h1.71v0.81h-2.73V15.73z"/>
				<path class="st2" d="M36.54,18.53v0.79h-2.88v-3.59h2.82v0.78h-1.81v0.61h1.6v0.76h-1.6v0.66H36.54z"/>
				<path class="st2" d="M41.29,18.33c0,0.62-0.51,0.99-1.48,0.99h-1.94v-3.59h1.84c0.94,0,1.41,0.38,1.41,0.94
					c0,0.34-0.17,0.62-0.48,0.78C41.04,17.59,41.29,17.9,41.29,18.33z M38.88,16.46v0.69h0.7c0.34,0,0.51-0.12,0.51-0.35
					c0-0.23-0.17-0.34-0.51-0.34H38.88z M40.27,18.22c0-0.25-0.18-0.36-0.53-0.36h-0.85v0.73h0.85
					C40.08,18.58,40.27,18.47,40.27,18.22z"/>
				<path class="st2" d="M44.16,18.36h-0.55v0.95h-1.02v-3.59h1.64c0.98,0,1.6,0.51,1.6,1.33c0,0.53-0.26,0.92-0.7,1.13l0.77,1.13
					h-1.09L44.16,18.36z M44.17,16.53h-0.56v1.05h0.56c0.42,0,0.63-0.2,0.63-0.52C44.8,16.72,44.59,16.53,44.17,16.53z"/>
				<path class="st2" d="M49.56,18.62h-1.52l-0.28,0.7h-1.04l1.59-3.59h1l1.59,3.59h-1.06L49.56,18.62z M49.26,17.87l-0.46-1.15
					l-0.46,1.15H49.26z"/>
				<path class="st2" d="M52.54,16.53h-1.1v-0.81h3.22v0.81h-1.1v2.79h-1.02V16.53z"/>
				<path class="st2" d="M55.8,15.73h1.02v3.59H55.8V15.73z"/>
				<path class="st2" d="M61.73,15.73v3.59h-0.84l-1.59-1.91v1.91h-1v-3.59h0.84l1.59,1.91v-1.91H61.73z"/>
				<path class="st2" d="M65.62,17.44h0.9v1.49c-0.42,0.3-0.99,0.46-1.51,0.46c-1.14,0-1.98-0.77-1.98-1.87s0.84-1.87,2-1.87
					c0.67,0,1.22,0.23,1.57,0.66l-0.65,0.59c-0.25-0.27-0.53-0.4-0.87-0.4c-0.62,0-1.03,0.41-1.03,1.03c0,0.61,0.41,1.03,1.02,1.03
					c0.19,0,0.37-0.04,0.55-0.12V17.44z"/>
			</g>
			<g>
				<path class="st2" d="M35.27,57.51v1.29h-1.02v-1.3l-1.37-2.29h1.07l0.85,1.43l0.85-1.43h0.99L35.27,57.51z"/>
				<path class="st2" d="M40.54,58.01v0.79h-2.88V55.2h2.82v0.78h-1.81v0.61h1.6v0.76h-1.6v0.66H40.54z"/>
				<path class="st2" d="M44.29,58.1h-1.52l-0.28,0.7h-1.04l1.59-3.59h1l1.59,3.59h-1.06L44.29,58.1z M43.99,57.35l-0.46-1.15
					l-0.46,1.15H43.99z"/>
				<path class="st2" d="M48.25,57.84h-0.55v0.95h-1.02V55.2h1.64c0.98,0,1.6,0.51,1.6,1.33c0,0.53-0.26,0.92-0.7,1.13l0.77,1.13
					H48.9L48.25,57.84z M48.26,56h-0.56v1.05h0.56c0.42,0,0.63-0.2,0.63-0.52C48.89,56.2,48.68,56,48.26,56z"/>
				<path class="st2" d="M50.99,58.47l0.33-0.75c0.32,0.21,0.77,0.35,1.19,0.35c0.42,0,0.58-0.12,0.58-0.29
					c0-0.57-2.04-0.15-2.04-1.49c0-0.64,0.52-1.16,1.59-1.16c0.47,0,0.95,0.11,1.3,0.31l-0.31,0.75c-0.34-0.18-0.68-0.28-1-0.28
					c-0.43,0-0.58,0.14-0.58,0.32c0,0.55,2.04,0.14,2.04,1.46c0,0.63-0.52,1.16-1.59,1.16C51.92,58.87,51.33,58.71,50.99,58.47z"/>
			</g>
			<g>
				<path class="st2" d="M0,64.87c0-1.08,0.85-1.87,2-1.87s2,0.79,2,1.87c0,1.08-0.85,1.87-2,1.87S0,65.95,0,64.87z M2.97,64.87
					c0-0.62-0.43-1.03-0.97-1.03c-0.54,0-0.97,0.41-0.97,1.03c0,0.62,0.43,1.03,0.97,1.03C2.54,65.9,2.97,65.49,2.97,64.87z"/>
				<path class="st2" d="M6.31,63.86v0.79h1.59v0.79H6.31v1.23H5.29v-3.59h2.82v0.78H6.31z"/>
				<path class="st2" d="M11.43,64.87c0-1.09,0.84-1.87,1.98-1.87c0.66,0,1.2,0.24,1.54,0.68l-0.65,0.58
					c-0.23-0.27-0.5-0.42-0.85-0.42c-0.59,0-1,0.41-1,1.03s0.41,1.03,1,1.03c0.34,0,0.62-0.15,0.85-0.42l0.65,0.59
					c-0.35,0.44-0.88,0.68-1.54,0.68C12.27,66.74,11.43,65.97,11.43,64.87z"/>
				<path class="st2" d="M18.52,65.97H17l-0.28,0.7h-1.04l1.59-3.59h1l1.59,3.59H18.8L18.52,65.97z M18.22,65.22l-0.46-1.15
					l-0.46,1.15H18.22z"/>
				<path class="st2" d="M24.16,66.67l-0.01-1.9l-0.92,1.55h-0.45l-0.92-1.5v1.85h-0.94v-3.59h0.84l1.26,2.07l1.23-2.07h0.84
					l0.01,3.59H24.16z"/>
				<path class="st2" d="M29.46,65.88v0.79h-2.88v-3.59h2.82v0.78h-1.81v0.61h1.6v0.76h-1.6v0.66H29.46z"/>
				<path class="st2" d="M32.36,65.71h-0.55v0.95h-1.02v-3.59h1.64c0.98,0,1.6,0.51,1.6,1.33c0,0.53-0.26,0.92-0.7,1.13l0.77,1.13
					h-1.09L32.36,65.71z M32.37,63.88h-0.56v1.05h0.56c0.42,0,0.63-0.2,0.63-0.52C33,64.07,32.79,63.88,32.37,63.88z"/>
				<path class="st2" d="M37.77,65.97h-1.52l-0.28,0.7h-1.04l1.59-3.59h1l1.59,3.59h-1.06L37.77,65.97z M37.47,65.22l-0.46-1.15
					l-0.46,1.15H37.47z"/>
				<path class="st2" d="M45.31,65.88v0.79h-2.88v-3.59h2.82v0.78h-1.81v0.61h1.6v0.76h-1.6v0.66H45.31z"/>
				<path class="st2" d="M50.06,63.08v3.59h-0.84l-1.59-1.91v1.91h-1v-3.59h0.84l1.59,1.91v-1.91H50.06z"/>
				<path class="st2" d="M53.95,64.8h0.9v1.49c-0.42,0.3-0.99,0.46-1.51,0.46c-1.14,0-1.98-0.77-1.98-1.87c0-1.09,0.84-1.87,2-1.87
					c0.67,0,1.22,0.23,1.57,0.66l-0.65,0.59c-0.25-0.27-0.53-0.4-0.87-0.4c-0.62,0-1.03,0.41-1.03,1.03c0,0.61,0.41,1.03,1.02,1.03
					c0.19,0,0.37-0.04,0.55-0.12V64.8z"/>
				<path class="st2" d="M56.26,63.08h1.02v3.59h-1.02V63.08z"/>
				<path class="st2" d="M62.19,63.08v3.59h-0.84l-1.59-1.91v1.91h-1v-3.59h0.84l1.59,1.91v-1.91H62.19z"/>
				<path class="st2" d="M66.55,65.88v0.79h-2.88v-3.59h2.82v0.78h-1.81v0.61h1.6v0.76h-1.6v0.66H66.55z"/>
				<path class="st2" d="M70.77,65.88v0.79h-2.88v-3.59h2.82v0.78h-1.81v0.61h1.6v0.76h-1.6v0.66H70.77z"/>
				<path class="st2" d="M73.67,65.71h-0.55v0.95H72.1v-3.59h1.64c0.98,0,1.6,0.51,1.6,1.33c0,0.53-0.26,0.92-0.7,1.13l0.77,1.13
					h-1.09L73.67,65.71z M73.68,63.88h-0.56v1.05h0.56c0.42,0,0.63-0.2,0.63-0.52C74.31,64.07,74.1,63.88,73.68,63.88z"/>
				<path class="st2" d="M76.67,63.08h1.02v3.59h-1.02V63.08z"/>
				<path class="st2" d="M82.6,63.08v3.59h-0.84l-1.59-1.91v1.91h-1v-3.59h0.84l1.59,1.91v-1.91H82.6z"/>
				<path class="st2" d="M86.49,64.8h0.9v1.49c-0.42,0.3-0.99,0.46-1.51,0.46c-1.14,0-1.98-0.77-1.98-1.87c0-1.09,0.84-1.87,2-1.87
					c0.67,0,1.22,0.23,1.57,0.66l-0.65,0.59c-0.25-0.27-0.53-0.4-0.87-0.4c-0.62,0-1.03,0.41-1.03,1.03c0,0.61,0.41,1.03,1.02,1.03
					c0.19,0,0.37-0.04,0.55-0.12V64.8z"/>
			</g>
		</g>
		<g>
			<g>
				<rect x="93.42" y="15.63" class="st3" width="0.86" height="51.74"/>
			</g>
		</g>
		<g>
			<g>
				<g>
					<polygon class="st4" points="140.33,35.74 140.33,16.25 135.22,16.25 135.22,40.73 140.02,40.73 140.33,40.73 159.39,40.73 
						159.39,35.74 					"/>
					<polygon class="st4" points="128.53,47.26 128.53,66.75 133.64,66.75 133.64,42.27 128.85,42.27 128.53,42.27 109.48,42.27 
						109.48,47.26 					"/>
					<polygon class="st0" points="140.35,47.26 140.35,66.75 135.23,66.75 135.23,42.27 140.03,42.27 140.35,42.27 159.4,42.27 
						159.4,47.26 					"/>
					<polygon class="st0" points="128.52,35.74 128.52,16.25 133.63,16.25 133.63,40.73 128.83,40.73 128.52,40.73 109.46,40.73 
						109.46,35.74 					"/>
					<circle class="st4" cx="144.31" cy="31.89" r="3.5"/>
					<circle class="st4" cx="149.1" cy="27.3" r="2.95"/>
					<circle class="st4" cx="153.09" cy="23.26" r="2.3"/>
					<circle class="st4" cx="156.23" cy="20.12" r="1.65"/>
					<circle class="st4" cx="158.87" cy="17.75" r="1.13"/>
					<circle class="st0" cx="124.56" cy="31.89" r="3.5"/>
					<circle class="st0" cx="119.77" cy="27.3" r="2.95"/>
					<circle class="st0" cx="115.78" cy="23.26" r="2.3"/>
					<circle class="st0" cx="112.64" cy="20.12" r="1.65"/>
					<circle class="st0" cx="110" cy="17.75" r="1.13"/>
					<circle class="st0" cx="144.31" cy="51.22" r="3.5"/>
					<circle class="st0" cx="149.1" cy="55.81" r="2.95"/>
					<circle class="st0" cx="153.09" cy="59.85" r="2.3"/>
					<circle class="st0" cx="156.23" cy="63" r="1.65"/>
					<circle class="st0" cx="158.87" cy="65.36" r="1.13"/>
					<circle class="st4" cx="124.56" cy="51.22" r="3.5"/>
					<circle class="st4" cx="119.77" cy="55.81" r="2.95"/>
					<circle class="st4" cx="115.78" cy="59.85" r="2.3"/>
					<circle class="st4" cx="112.64" cy="63" r="1.65"/>
					<circle class="st4" cx="110" cy="65.36" r="1.13"/>
					<path class="st0" d="M171.34,33.96l2.31,0.39c-0.3,0.85-0.77,1.49-1.41,1.93c-0.64,0.44-1.44,0.66-2.4,0.66
						c-1.52,0-2.65-0.5-3.38-1.49c-0.58-0.8-0.87-1.8-0.87-3.02c0-1.45,0.38-2.59,1.14-3.41c0.76-0.82,1.72-1.23,2.88-1.23
						c1.3,0,2.33,0.43,3.08,1.29c0.75,0.86,1.11,2.18,1.08,3.95h-5.8c0.02,0.69,0.2,1.22,0.56,1.6c0.36,0.38,0.8,0.57,1.34,0.57
						c0.36,0,0.67-0.1,0.91-0.3S171.21,34.4,171.34,33.96z M171.47,31.62c-0.02-0.67-0.19-1.18-0.52-1.53
						c-0.33-0.35-0.73-0.52-1.2-0.52c-0.51,0-0.92,0.18-1.25,0.55c-0.33,0.37-0.49,0.87-0.49,1.5H171.47z"/>
					<rect x="175.39" y="31.21" class="st0" width="4.55" height="2.32"/>
					<path class="st0" d="M188.91,30.58l-2.28,0.41c-0.08-0.46-0.25-0.8-0.52-1.03c-0.27-0.23-0.63-0.35-1.06-0.35
						c-0.58,0-1.04,0.2-1.38,0.6c-0.34,0.4-0.52,1.06-0.52,2c0,1.04,0.17,1.77,0.52,2.2c0.35,0.43,0.82,0.64,1.41,0.64
						c0.44,0,0.8-0.12,1.08-0.37c0.28-0.25,0.48-0.68,0.59-1.29l2.27,0.39c-0.24,1.04-0.69,1.83-1.36,2.37
						c-0.67,0.53-1.57,0.8-2.7,0.8c-1.28,0-2.3-0.4-3.06-1.21c-0.76-0.81-1.14-1.93-1.14-3.35c0-1.45,0.38-2.57,1.15-3.37
						c0.76-0.8,1.8-1.21,3.1-1.21c1.07,0,1.91,0.23,2.54,0.69C188.18,28.94,188.63,29.64,188.91,30.58z"/>
					<path class="st0" d="M190.13,32.25c0-0.77,0.19-1.51,0.57-2.23c0.38-0.72,0.92-1.27,1.61-1.65c0.7-0.38,1.47-0.57,2.33-0.57
						c1.32,0,2.41,0.43,3.26,1.29c0.85,0.86,1.27,1.95,1.27,3.26c0,1.32-0.43,2.42-1.28,3.29c-0.85,0.87-1.93,1.31-3.23,1.31
						c-0.8,0-1.57-0.18-2.3-0.54c-0.73-0.36-1.28-0.89-1.66-1.59C190.32,34.1,190.13,33.25,190.13,32.25z M192.5,32.37
						c0,0.87,0.21,1.53,0.62,1.99c0.41,0.46,0.92,0.69,1.52,0.69c0.6,0,1.11-0.23,1.52-0.69c0.41-0.46,0.61-1.13,0.61-2.01
						c0-0.86-0.2-1.52-0.61-1.98c-0.41-0.46-0.92-0.69-1.52-0.69c-0.6,0-1.11,0.23-1.52,0.69C192.71,30.84,192.5,31.5,192.5,32.37z"
						/>
					<path class="st0" d="M208.94,36.75h-2.32v-4.47c0-0.94-0.05-1.56-0.15-1.83c-0.1-0.28-0.26-0.49-0.48-0.65
						c-0.22-0.15-0.49-0.23-0.8-0.23c-0.4,0-0.76,0.11-1.08,0.33c-0.32,0.22-0.54,0.51-0.66,0.87c-0.12,0.36-0.18,1.03-0.18,2.01
						v3.96h-2.32v-8.75h2.15v1.29c0.76-0.99,1.73-1.48,2.88-1.48c0.51,0,0.98,0.09,1.4,0.28c0.42,0.18,0.74,0.42,0.96,0.7
						c0.22,0.29,0.37,0.61,0.45,0.97c0.09,0.36,0.13,0.88,0.13,1.56V36.75z"/>
					<path class="st0" d="M215.37,32.81l2.37-0.23c0.14,0.8,0.43,1.38,0.87,1.76c0.44,0.37,1.03,0.56,1.77,0.56
						c0.79,0,1.38-0.17,1.78-0.5c0.4-0.33,0.6-0.72,0.6-1.17c0-0.29-0.08-0.53-0.25-0.73c-0.17-0.2-0.46-0.37-0.88-0.52
						c-0.29-0.1-0.94-0.27-1.95-0.53c-1.31-0.32-2.23-0.72-2.75-1.2c-0.74-0.66-1.11-1.48-1.11-2.43c0-0.62,0.17-1.19,0.52-1.73
						c0.35-0.54,0.85-0.94,1.51-1.22c0.66-0.28,1.45-0.42,2.38-0.42c1.52,0,2.66,0.33,3.42,1c0.77,0.66,1.17,1.55,1.21,2.66
						l-2.44,0.11c-0.1-0.62-0.33-1.07-0.67-1.34c-0.34-0.27-0.86-0.41-1.55-0.41c-0.71,0-1.26,0.15-1.66,0.44
						c-0.26,0.19-0.39,0.44-0.39,0.75c0,0.29,0.12,0.53,0.36,0.73c0.31,0.26,1.05,0.53,2.24,0.81c1.19,0.28,2.06,0.57,2.63,0.87
						c0.57,0.3,1.01,0.71,1.34,1.23c0.32,0.52,0.48,1.16,0.48,1.92c0,0.69-0.19,1.34-0.58,1.95c-0.38,0.6-0.93,1.05-1.63,1.35
						c-0.7,0.29-1.58,0.44-2.63,0.44c-1.53,0-2.7-0.35-3.52-1.06C216.02,35.19,215.53,34.17,215.37,32.81z"/>
					<path class="st0" d="M226.14,27.99h2.46l2.09,6.21l2.04-6.21h2.4l-3.09,8.42l-0.55,1.52c-0.2,0.51-0.4,0.9-0.58,1.17
						c-0.18,0.27-0.4,0.49-0.63,0.66c-0.24,0.17-0.53,0.3-0.88,0.39c-0.35,0.09-0.74,0.14-1.18,0.14c-0.44,0-0.88-0.05-1.31-0.14
						l-0.21-1.81c0.36,0.07,0.69,0.11,0.98,0.11c0.54,0,0.94-0.16,1.2-0.47c0.26-0.32,0.46-0.72,0.59-1.21L226.14,27.99z"/>
					<path class="st0" d="M235.8,34.25l2.32-0.35c0.1,0.45,0.3,0.79,0.6,1.03c0.3,0.23,0.73,0.35,1.27,0.35
						c0.6,0,1.05-0.11,1.35-0.33c0.2-0.15,0.31-0.36,0.31-0.62c0-0.18-0.06-0.32-0.16-0.44c-0.12-0.11-0.37-0.21-0.77-0.3
						c-1.87-0.41-3.05-0.79-3.55-1.13c-0.69-0.47-1.04-1.13-1.04-1.97c0-0.76,0.3-1.4,0.9-1.91c0.6-0.52,1.53-0.77,2.79-0.77
						c1.2,0,2.09,0.2,2.67,0.59c0.58,0.39,0.98,0.97,1.2,1.73l-2.18,0.4c-0.09-0.34-0.27-0.6-0.53-0.78
						c-0.26-0.18-0.63-0.27-1.12-0.27c-0.61,0-1.05,0.09-1.31,0.26c-0.18,0.12-0.26,0.28-0.26,0.47c0,0.16,0.08,0.3,0.23,0.42
						c0.21,0.15,0.93,0.37,2.16,0.65c1.23,0.28,2.09,0.62,2.58,1.03c0.48,0.41,0.73,0.99,0.73,1.72c0,0.8-0.34,1.49-1.01,2.07
						c-0.67,0.58-1.66,0.87-2.98,0.87c-1.19,0-2.14-0.24-2.83-0.73C236.47,35.73,236.02,35.08,235.8,34.25z"/>
					<path class="st0" d="M250.02,27.99v1.85h-1.58v3.53c0,0.71,0.02,1.13,0.05,1.25c0.03,0.12,0.1,0.22,0.21,0.29
						c0.11,0.08,0.24,0.12,0.39,0.12c0.21,0,0.52-0.07,0.93-0.22l0.2,1.8c-0.54,0.23-1.15,0.35-1.83,0.35
						c-0.42,0-0.79-0.07-1.13-0.21c-0.34-0.14-0.58-0.32-0.74-0.54s-0.27-0.52-0.33-0.9c-0.05-0.27-0.07-0.81-0.07-1.63v-3.82h-1.06
						v-1.85h1.06v-1.74l2.32-1.35v3.09H250.02z"/>
					<path class="st0" d="M256.7,33.96l2.31,0.39c-0.3,0.85-0.77,1.49-1.41,1.93c-0.64,0.44-1.44,0.66-2.4,0.66
						c-1.52,0-2.65-0.5-3.38-1.49c-0.58-0.8-0.87-1.8-0.87-3.02c0-1.45,0.38-2.59,1.14-3.41c0.76-0.82,1.72-1.23,2.88-1.23
						c1.3,0,2.33,0.43,3.08,1.29c0.75,0.86,1.11,2.18,1.08,3.95h-5.8c0.02,0.69,0.2,1.22,0.56,1.6c0.36,0.38,0.8,0.57,1.34,0.57
						c0.36,0,0.67-0.1,0.91-0.3C256.38,34.72,256.57,34.4,256.7,33.96z M256.83,31.62c-0.02-0.67-0.19-1.18-0.52-1.53
						c-0.33-0.35-0.73-0.52-1.2-0.52c-0.51,0-0.92,0.18-1.25,0.55c-0.33,0.37-0.49,0.87-0.49,1.5H256.83z"/>
					<path class="st0" d="M260.84,27.99h2.13v1.2c0.76-0.93,1.67-1.39,2.73-1.39c0.56,0,1.05,0.12,1.46,0.35
						c0.41,0.23,0.75,0.58,1.01,1.05c0.38-0.47,0.8-0.82,1.24-1.05c0.45-0.23,0.92-0.35,1.43-0.35c0.64,0,1.19,0.13,1.63,0.39
						c0.45,0.26,0.78,0.64,1,1.15c0.16,0.37,0.24,0.98,0.24,1.81v5.6h-2.32v-5c0-0.87-0.08-1.43-0.24-1.68
						c-0.21-0.33-0.54-0.49-0.99-0.49c-0.32,0-0.63,0.1-0.91,0.3c-0.29,0.2-0.49,0.49-0.62,0.87c-0.13,0.38-0.19,0.98-0.19,1.81v4.2
						h-2.32v-4.8c0-0.85-0.04-1.4-0.12-1.65c-0.08-0.25-0.21-0.43-0.38-0.55c-0.17-0.12-0.41-0.18-0.7-0.18
						c-0.36,0-0.68,0.1-0.96,0.29c-0.29,0.19-0.49,0.47-0.61,0.83c-0.12,0.36-0.19,0.96-0.19,1.8v4.25h-2.32V27.99z"/>
					<path class="st0" d="M275.21,34.25l2.32-0.35c0.1,0.45,0.3,0.79,0.6,1.03c0.3,0.23,0.73,0.35,1.27,0.35
						c0.6,0,1.05-0.11,1.35-0.33c0.2-0.15,0.31-0.36,0.31-0.62c0-0.18-0.05-0.32-0.16-0.44c-0.12-0.11-0.37-0.21-0.77-0.3
						c-1.87-0.41-3.05-0.79-3.55-1.13c-0.69-0.47-1.04-1.13-1.04-1.97c0-0.76,0.3-1.4,0.9-1.91c0.6-0.52,1.53-0.77,2.79-0.77
						c1.2,0,2.09,0.2,2.67,0.59c0.58,0.39,0.98,0.97,1.2,1.73l-2.18,0.4c-0.09-0.34-0.27-0.6-0.53-0.78
						c-0.26-0.18-0.63-0.27-1.12-0.27c-0.61,0-1.05,0.09-1.31,0.26c-0.18,0.12-0.26,0.28-0.26,0.47c0,0.16,0.08,0.3,0.23,0.42
						c0.21,0.15,0.93,0.37,2.16,0.65c1.23,0.28,2.09,0.62,2.58,1.03c0.48,0.41,0.73,0.99,0.73,1.72c0,0.8-0.34,1.49-1.01,2.07
						c-0.67,0.58-1.66,0.87-2.98,0.87c-1.19,0-2.14-0.24-2.83-0.73C275.88,35.73,275.42,35.08,275.21,34.25z"/>
				</g>
				<g>
					<path d="M288,25.49c0,0.41-0.1,0.8-0.31,1.16c-0.21,0.36-0.49,0.64-0.85,0.84c-0.36,0.21-0.74,0.31-1.16,0.31
						c-0.41,0-0.8-0.1-1.15-0.31c-0.36-0.21-0.64-0.49-0.85-0.84c-0.21-0.36-0.31-0.74-0.31-1.16c0-0.41,0.1-0.8,0.31-1.15
						c0.21-0.36,0.49-0.64,0.85-0.85c0.36-0.21,0.74-0.31,1.15-0.31c0.41,0,0.8,0.1,1.16,0.31c0.36,0.21,0.64,0.49,0.85,0.85
						C287.9,24.69,288,25.08,288,25.49z M287.55,25.49c0-0.51-0.18-0.95-0.55-1.32c-0.36-0.36-0.8-0.55-1.32-0.55
						s-0.95,0.18-1.32,0.55s-0.55,0.8-0.55,1.32c0,0.51,0.18,0.95,0.55,1.32s0.8,0.55,1.32,0.55s0.95-0.18,1.32-0.55
						C287.37,26.44,287.55,26,287.55,25.49z M284.64,24.25h1.1c0.31,0,0.54,0.06,0.68,0.19c0.14,0.13,0.21,0.29,0.21,0.51
						c0,0.17-0.05,0.31-0.16,0.43c-0.11,0.12-0.28,0.21-0.51,0.26c0.09,0.04,0.16,0.07,0.21,0.11c0.06,0.06,0.13,0.14,0.2,0.25
						c0,0.01,0.14,0.25,0.4,0.71h-0.73c-0.24-0.47-0.39-0.75-0.47-0.84c-0.08-0.09-0.16-0.14-0.24-0.14c-0.02,0-0.04,0-0.08,0.01
						v0.97h-0.61V24.25z M285.26,25.3h0.27c0.18,0,0.3-0.03,0.38-0.09c0.07-0.06,0.11-0.13,0.11-0.22c0-0.09-0.03-0.16-0.1-0.22
						c-0.07-0.06-0.19-0.09-0.36-0.09h-0.29V25.3z"/>
				</g>
			</g>
			<g>
				<path class="st4" d="M171.15,53.12v-5.03h-1.8v-1.02h4.81v1.02h-1.79v5.03H171.15z"/>
				<path class="st4" d="M176.1,47.07v2.23c0.37-0.44,0.82-0.66,1.34-0.66c0.27,0,0.51,0.05,0.72,0.15c0.21,0.1,0.38,0.23,0.49,0.38
					c0.11,0.15,0.18,0.32,0.22,0.51c0.04,0.19,0.06,0.48,0.06,0.87v2.57h-1.16v-2.32c0-0.46-0.02-0.75-0.07-0.88
					c-0.04-0.12-0.12-0.22-0.23-0.3c-0.11-0.07-0.25-0.11-0.42-0.11c-0.19,0-0.36,0.05-0.52,0.14c-0.15,0.09-0.26,0.23-0.33,0.42
					c-0.07,0.19-0.11,0.47-0.11,0.84v2.2h-1.16v-6.05H176.1z"/>
				<path class="st4" d="M180.11,48.14v-1.07h1.16v1.07H180.11z M180.11,53.12v-4.39h1.16v4.39H180.11z"/>
				<path class="st4" d="M186.45,53.12h-1.16v-2.24c0-0.47-0.02-0.78-0.07-0.92c-0.05-0.14-0.13-0.25-0.24-0.32
					c-0.11-0.08-0.25-0.12-0.4-0.12c-0.2,0-0.38,0.06-0.54,0.17c-0.16,0.11-0.27,0.26-0.33,0.44c-0.06,0.18-0.09,0.52-0.09,1.01
					v1.99h-1.16v-4.39h1.08v0.64c0.38-0.5,0.86-0.74,1.45-0.74c0.26,0,0.49,0.05,0.7,0.14c0.21,0.09,0.37,0.21,0.48,0.35
					c0.11,0.14,0.18,0.31,0.23,0.49c0.04,0.18,0.06,0.44,0.06,0.78V53.12z"/>
				<path class="st4" d="M187.58,53.12v-6.05h1.16v3.21l1.36-1.54h1.43l-1.5,1.6l1.61,2.78h-1.25l-1.1-1.97l-0.54,0.57v1.4H187.58z"
					/>
				<path class="st4" d="M196.23,53.12l-2.16-6.05h1.33l1.53,4.48l1.48-4.48h1.3l-2.17,6.05H196.23z"/>
				<path class="st4" d="M200.16,48.14v-1.07h1.16v1.07H200.16z M200.16,53.12v-4.39h1.16v4.39H200.16z"/>
				<path class="st4" d="M202.1,51.87l1.16-0.18c0.05,0.23,0.15,0.4,0.3,0.51c0.15,0.12,0.36,0.18,0.64,0.18
					c0.3,0,0.53-0.06,0.68-0.17c0.1-0.08,0.15-0.18,0.15-0.31c0-0.09-0.03-0.16-0.08-0.22c-0.06-0.06-0.19-0.11-0.39-0.15
					c-0.94-0.21-1.53-0.4-1.78-0.57c-0.35-0.24-0.52-0.57-0.52-0.99c0-0.38,0.15-0.7,0.45-0.96c0.3-0.26,0.77-0.39,1.4-0.39
					c0.6,0,1.05,0.1,1.34,0.29c0.29,0.2,0.49,0.48,0.6,0.87l-1.09,0.2c-0.05-0.17-0.14-0.3-0.27-0.39
					c-0.13-0.09-0.32-0.14-0.56-0.14c-0.31,0-0.52,0.04-0.66,0.13c-0.09,0.06-0.13,0.14-0.13,0.24c0,0.08,0.04,0.15,0.12,0.21
					c0.1,0.08,0.47,0.19,1.08,0.33c0.62,0.14,1.05,0.31,1.29,0.52c0.24,0.21,0.36,0.49,0.36,0.86c0,0.4-0.17,0.75-0.5,1.04
					c-0.34,0.29-0.83,0.43-1.49,0.43c-0.6,0-1.07-0.12-1.42-0.36C202.44,52.62,202.21,52.29,202.1,51.87z"/>
				<path class="st4" d="M207.22,48.14v-1.07h1.16v1.07H207.22z M207.22,53.12v-4.39h1.16v4.39H207.22z"/>
				<path class="st4" d="M209.3,50.87c0-0.39,0.09-0.76,0.28-1.12c0.19-0.36,0.46-0.64,0.81-0.83c0.35-0.19,0.74-0.28,1.17-0.28
					c0.66,0,1.21,0.22,1.63,0.65c0.42,0.43,0.64,0.98,0.64,1.63c0,0.66-0.21,1.21-0.64,1.65c-0.43,0.44-0.97,0.65-1.62,0.65
					c-0.4,0-0.79-0.09-1.15-0.27c-0.36-0.18-0.64-0.45-0.83-0.8C209.39,51.8,209.3,51.37,209.3,50.87z M210.49,50.93
					c0,0.43,0.1,0.77,0.31,1s0.46,0.35,0.76,0.35c0.3,0,0.56-0.12,0.76-0.35c0.21-0.23,0.31-0.57,0.31-1.01
					c0-0.43-0.1-0.76-0.31-0.99c-0.2-0.23-0.46-0.35-0.76-0.35c-0.3,0-0.56,0.12-0.76,0.35S210.49,50.49,210.49,50.93z"/>
				<path class="st4" d="M218.72,53.12h-1.16v-2.24c0-0.47-0.02-0.78-0.07-0.92c-0.05-0.14-0.13-0.25-0.24-0.32
					c-0.11-0.08-0.25-0.12-0.4-0.12c-0.2,0-0.38,0.06-0.54,0.17c-0.16,0.11-0.27,0.26-0.33,0.44c-0.06,0.18-0.09,0.52-0.09,1.01
					v1.99h-1.16v-4.39h1.08v0.64c0.38-0.5,0.86-0.74,1.45-0.74c0.26,0,0.49,0.05,0.7,0.14c0.21,0.09,0.37,0.21,0.48,0.35
					c0.11,0.14,0.18,0.31,0.23,0.49c0.04,0.18,0.06,0.44,0.06,0.78V53.12z"/>
				<path class="st4" d="M219.9,53.12v-1.16h1.16v1.16H219.9z"/>
				<path class="st4" d="M225.97,53.12v-5.03h-1.8v-1.02h4.81v1.02h-1.79v5.03H225.97z"/>
				<path class="st4" d="M230.92,47.07v2.23c0.37-0.44,0.82-0.66,1.34-0.66c0.27,0,0.51,0.05,0.72,0.15
					c0.21,0.1,0.38,0.23,0.49,0.38c0.11,0.15,0.18,0.32,0.22,0.51c0.04,0.19,0.06,0.48,0.06,0.87v2.57h-1.16v-2.32
					c0-0.46-0.02-0.75-0.07-0.88c-0.04-0.12-0.12-0.22-0.23-0.3c-0.11-0.07-0.25-0.11-0.42-0.11c-0.19,0-0.36,0.05-0.52,0.14
					c-0.15,0.09-0.26,0.23-0.33,0.42c-0.07,0.19-0.11,0.47-0.11,0.84v2.2h-1.16v-6.05H230.92z"/>
				<path class="st4" d="M234.93,48.14v-1.07h1.16v1.07H234.93z M234.93,53.12v-4.39h1.16v4.39H234.93z"/>
				<path class="st4" d="M241.27,53.12h-1.16v-2.24c0-0.47-0.02-0.78-0.07-0.92c-0.05-0.14-0.13-0.25-0.24-0.32
					c-0.11-0.08-0.25-0.12-0.4-0.12c-0.2,0-0.38,0.06-0.54,0.17c-0.16,0.11-0.27,0.26-0.33,0.44c-0.06,0.18-0.09,0.52-0.09,1.01
					v1.99h-1.16v-4.39h1.08v0.64c0.38-0.5,0.86-0.74,1.45-0.74c0.26,0,0.49,0.05,0.7,0.14c0.21,0.09,0.37,0.21,0.48,0.35
					c0.11,0.14,0.18,0.31,0.23,0.49c0.04,0.18,0.06,0.44,0.06,0.78V53.12z"/>
				<path class="st4" d="M242.4,53.12v-6.05h1.16v3.21l1.36-1.54h1.43l-1.5,1.6l1.61,2.78h-1.25l-1.1-1.97l-0.54,0.57v1.4H242.4z"/>
				<path class="st4" d="M252.04,51.73l1.16,0.19c-0.15,0.42-0.38,0.75-0.7,0.97c-0.32,0.22-0.72,0.33-1.2,0.33
					c-0.76,0-1.33-0.25-1.69-0.75c-0.29-0.4-0.43-0.9-0.43-1.51c0-0.73,0.19-1.3,0.57-1.71c0.38-0.41,0.86-0.62,1.44-0.62
					c0.65,0,1.17,0.22,1.54,0.65c0.38,0.43,0.56,1.09,0.54,1.98h-2.91c0.01,0.34,0.1,0.61,0.28,0.8c0.18,0.19,0.4,0.29,0.67,0.29
					c0.18,0,0.33-0.05,0.46-0.15C251.88,52.11,251.97,51.95,252.04,51.73z M252.1,50.55c-0.01-0.34-0.09-0.59-0.26-0.77
					c-0.17-0.17-0.37-0.26-0.6-0.26c-0.25,0-0.46,0.09-0.63,0.28c-0.17,0.18-0.25,0.43-0.24,0.75H252.1z"/>
				<path class="st4" d="M254.07,51.51v-1.16h2.28v1.16H254.07z"/>
				<path class="st4" d="M260.84,50.03l-1.14,0.21c-0.04-0.23-0.13-0.4-0.26-0.52c-0.14-0.12-0.31-0.17-0.53-0.17
					c-0.29,0-0.52,0.1-0.69,0.3c-0.17,0.2-0.26,0.53-0.26,1c0,0.52,0.09,0.89,0.26,1.1c0.17,0.21,0.41,0.32,0.7,0.32
					c0.22,0,0.4-0.06,0.54-0.19c0.14-0.13,0.24-0.34,0.3-0.65l1.14,0.19c-0.12,0.52-0.35,0.92-0.68,1.19
					c-0.34,0.27-0.79,0.4-1.35,0.4c-0.64,0-1.15-0.2-1.53-0.61c-0.38-0.4-0.57-0.96-0.57-1.68c0-0.72,0.19-1.29,0.57-1.69
					c0.38-0.4,0.9-0.6,1.55-0.6c0.53,0,0.96,0.11,1.27,0.34C260.48,49.21,260.7,49.56,260.84,50.03z"/>
				<path class="st4" d="M261.45,50.87c0-0.39,0.09-0.76,0.28-1.12c0.19-0.36,0.46-0.64,0.81-0.83c0.35-0.19,0.74-0.28,1.17-0.28
					c0.66,0,1.21,0.22,1.63,0.65c0.42,0.43,0.64,0.98,0.64,1.63c0,0.66-0.21,1.21-0.64,1.65c-0.43,0.44-0.97,0.65-1.62,0.65
					c-0.4,0-0.79-0.09-1.15-0.27c-0.36-0.18-0.64-0.45-0.83-0.8S261.45,51.37,261.45,50.87z M262.64,50.93c0,0.43,0.1,0.77,0.31,1
					c0.21,0.23,0.46,0.35,0.76,0.35c0.3,0,0.56-0.12,0.76-0.35c0.21-0.23,0.31-0.57,0.31-1.01c0-0.43-0.1-0.76-0.31-0.99
					c-0.2-0.23-0.46-0.35-0.76-0.35c-0.3,0-0.56,0.12-0.76,0.35C262.74,50.16,262.64,50.49,262.64,50.93z"/>
				<path class="st4" d="M270.87,53.12h-1.16v-2.24c0-0.47-0.02-0.78-0.07-0.92c-0.05-0.14-0.13-0.25-0.24-0.32
					c-0.11-0.08-0.25-0.12-0.4-0.12c-0.2,0-0.38,0.06-0.54,0.17c-0.16,0.11-0.27,0.26-0.33,0.44c-0.06,0.18-0.09,0.52-0.09,1.01
					v1.99h-1.16v-4.39h1.08v0.64c0.38-0.5,0.86-0.74,1.45-0.74c0.26,0,0.49,0.05,0.7,0.14c0.21,0.09,0.37,0.21,0.48,0.35
					c0.11,0.14,0.18,0.31,0.23,0.49c0.04,0.18,0.06,0.44,0.06,0.78V53.12z"/>
				<path class="st4" d="M272.05,53.12v-1.16h1.16v1.16H272.05z"/>
			</g>
		</g>
	</g>
	<g>
		<rect x="64.62" y="23.1" class="st1" width="1.1" height="4.94"/>
		
			<rect x="64.62" y="23.1" transform="matrix(-1.836970e-16 1 -1 -1.836970e-16 90.7395 -39.5903)" class="st1" width="1.1" height="4.94"/>
	</g>
</g>
</svg>
